<?xml version="1.0" encoding="utf-8"?>
<!-- Generator: Adobe Illustrator 26.0.0, SVG Export Plug-In . SVG Version: 6.00 Build 0)  -->
<svg version="1.1" id="Layer_2_00000140693280875223117100000003266917454064717749_"
	 xmlns="http://www.w3.org/2000/svg" xmlns:xlink="http://www.w3.org/1999/xlink" x="0px" y="0px" viewBox="0 0 100 100"
	 style="enable-background:new 0 0 100 100;" xml:space="preserve">
<style type="text/css">
	.st0{fill:#FF4743;}
	.st1{fill:#E6E7E8;}
</style>
<g>
	<path class="st0" d="M48.3,23.3c-4,0-7.7,1.1-10.9,3c-5.1,3.1-8.8,8.2-9.9,14.2c-0.2,1.3-0.4,2.6-0.4,3.9
		c0,19.5,18.2,34.8,21.1,34.8S69.4,64,69.4,44.5C69.4,32.8,59.9,23.3,48.3,23.3z M48.3,57c-6.9,0-12.5-5.6-12.5-12.5
		s5.6-12.5,12.5-12.5c6.9,0,12.5,5.6,12.5,12.5S55.2,57,48.3,57z"/>
	<g>
		<path d="M63.5,41.8c-0.2,0-0.3,0-0.5,0l-6-0.3c-0.6,0-1.2-0.5-1.2-1.2l-0.3-6c-0.1-2.9,1-5.8,3-7.8l5.7-5.7c0.5-0.5,1.3-0.5,1.8,0
			c0.5,0.5,0.5,1.3,0,1.8l-5.7,5.7c-1.6,1.6-2.4,3.7-2.3,5.9l0.2,4.9l4.9,0.2c2.2,0.1,4.4-0.7,5.9-2.3l5.7-5.7
			c0.5-0.5,1.3-0.5,1.8,0c0.5,0.5,0.5,1.3,0,1.8l-5.7,5.7C68.8,40.7,66.2,41.8,63.5,41.8z"/>
		<path d="M54.4,44c-0.3,0-0.6-0.1-0.9-0.4c-0.5-0.5-0.5-1.3,0-1.8l15.8-15.8c0.5-0.5,1.3-0.5,1.8,0s0.5,1.3,0,1.8L55.3,43.7
			C55.1,43.9,54.7,44,54.4,44z"/>
		<path d="M25.8,72.7c-0.3,0-0.6-0.1-0.9-0.4c-0.5-0.5-0.5-1.3,0-1.8l14.9-14.9c0.5-0.5,1.3-0.5,1.8,0s0.5,1.3,0,1.8L26.7,72.3
			C26.4,72.5,26.1,72.7,25.8,72.7z"/>
		<g>
			<path class="st1" d="M75.2,70.5L25.3,20.7c0,0-3.4,9.6,3.3,16.2c5.3,5.3,15.8,15.8,15.8,15.8l6.5-6.5"/>
			<path d="M75.2,71.8c-0.3,0-0.6-0.1-0.9-0.4L50.9,48l-5.6,5.6c-0.5,0.5-1.3,0.5-1.8,0L27.7,37.8c-7.1-7.1-3.7-17.1-3.6-17.5
				c0.1-0.4,0.5-0.7,0.9-0.8c0.4-0.1,0.9,0,1.2,0.3l25.5,25.5c0,0,0,0,0,0s0,0,0,0L76,69.7c0.5,0.5,0.5,1.3,0,1.8
				C75.8,71.7,75.5,71.8,75.2,71.8z M26,23.2c-0.5,3-0.8,8.6,3.5,12.9L44.4,51l4.7-4.7L26,23.2z"/>
		</g>
	</g>
	<path d="M38.2,27.1c-0.4,0-0.9-0.2-1.1-0.7c-0.3-0.6-0.1-1.4,0.5-1.7c5.2-2.9,11.7-3.5,17.3-1.7c0.7,0.2,1,0.9,0.8,1.6
		c-0.2,0.7-0.9,1-1.6,0.8c-5-1.6-10.8-1-15.4,1.5C38.6,27.1,38.4,27.1,38.2,27.1z"/>
	<path d="M48.3,80.5c-3.5,0-22.4-15.8-22.4-36.1c0-0.7,0.6-1.2,1.2-1.2s1.2,0.6,1.2,1.2C28.4,63,45.8,77.7,48.3,78
		c2.4-0.3,19.9-15,19.9-33.6c0-0.7,0.6-1.2,1.2-1.2s1.2,0.6,1.2,1.2C70.6,64.7,51.7,80.5,48.3,80.5z"/>
	<path d="M42.5,32.8c-0.5,0-0.9-0.3-1.1-0.7c-0.3-0.6,0-1.4,0.6-1.6c3.5-1.5,7.5-1.7,11.1-0.5c0.7,0.2,1,0.9,0.8,1.6
		c-0.2,0.7-0.9,1-1.6,0.8c-3-1-6.4-0.9-9.3,0.4C42.9,32.8,42.7,32.8,42.5,32.8z"/>
	<path d="M48.3,59.8c-6.7,0-12.6-4.3-14.6-10.7c-0.2-0.7,0.2-1.4,0.8-1.6c0.7-0.2,1.4,0.2,1.6,0.8c1.7,5.4,6.6,9,12.3,9
		c6.9,0,12.6-5.4,12.8-12.3c0-0.7,0.6-1.2,1.3-1.2c0.7,0,1.2,0.6,1.2,1.3C63.3,53.3,56.5,59.8,48.3,59.8z"/>
</g>
</svg>
